Coordinates
version=1
nRows=26
nColumns=24
inDegrees=yes

Units are S.I. units (second, meters, Newtons, ...)
Angles are in degrees.

endheader
time	pelvis_tilt	pelvis_list	pelvis_rotation	pelvis_tx	pelvis_ty	pelvis_tz	hip_flexion_r	hip_adduction_r	hip_rotation_r	knee_angle_r	ankle_angle_r	subtalar_angle_r	mtp_angle_r	hip_flexion_l	hip_adduction_l	hip_rotation_l	knee_angle_l	ankle_angle_l	subtalar_angle_l	mtp_angle_l	lumbar_extension	lumbar_bending	lumbar_rotation
      1.14150000	      1.75027661	     -0.94517386	      1.04436041	     -0.05751515	      0.98414153	      0.34127236	    -24.04335179	      4.16894875	     -2.48869102	      1.78168199	     12.81804422	     -4.05683943	      3.06868955	     18.72317379	      0.51593830	      2.37965999	      5.48024674	     -3.88655581	     -5.84114582	      4.51141621	    -14.78689132	      6.57709186	      6.04524823
      1.14566667	      1.76350971	     -0.78625625	      1.05396667	     -0.05158821	      0.98349449	      0.34080117	    -24.16562035	      3.95517995	     -2.70910135	      1.24761339	     13.00919295	     -3.67745545	      3.21100875	     18.69835670	      0.77473138	      2.62783085	      5.29811753	     -4.13032001	     -6.02894013	      4.60022620	    -14.77215122	      6.36191538	      6.08429806
      1.14983333	      1.82355725	     -0.59739172	      1.06849884	     -0.04562954	      0.98296388	      0.34032479	    -24.33005206	      3.71305776	     -2.93902631	      0.69561747	     13.16979412	     -3.32842513	      3.37152888	     18.62994248	      1.06468933	      2.87360944	      5.03079285	     -4.43108379	     -6.26642747	      4.70069857	    -14.80487279	      6.10732375	      6.09944061
      1.15400000	      1.85027529	     -0.40301856	      1.08564219	     -0.03964724	      0.98243767	      0.33983208	    -24.43439280	      3.46331210	     -3.16707802	      0.09342524	     13.31933318	     -2.99219917	      3.56456387	     18.61087225	      1.36197199	      3.14379609	      4.67327456	     -4.78102682	     -6.56962672	      4.82165317	    -14.79663878	      5.85089116	      6.11434857
      1.15816667	      1.88265606	     -0.19155455	      1.10533005	     -0.03363234	      0.98196532	      0.33932076	    -24.53553921	      3.19492184	     -3.38173738	     -0.52924385	     13.43301287	     -2.68210057	      3.76252655	     18.59858418	      1.67894089	      3.39586509	      4.23394936	     -5.19162338	     -6.91641279	      4.94325470	    -14.79237820	      5.57126027	      6.11738280
      1.16233333	      1.90272059	      0.02845086	      1.13092135	     -0.02759660	      0.98152576	      0.33879447	    -24.60348795	      2.91887383	     -3.59876883	     -1.19252138	     13.52041898	     -2.40026613	      3.98376610	     18.61310011	      2.00728284	      3.65855418	      3.71589636	     -5.64129007	     -7.31848105	      5.07730759	    -14.77339568	      5.28553799	      6.10782370
      1.16650000	      1.92301080	      0.25579984	      1.16254070	     -0.02154650	      0.98112853	      0.33825547	    -24.64848150	      2.63649947	     -3.82054572	     -1.90332756	     13.58037374	     -2.13842460	      4.26720940	     18.63713811	      2.34504580	      3.93652511	      3.13494927	     -6.12177754	     -7.78408446	      5.24349876	    -14.75302658	      4.98989181	      6.08920479
      1.17066667	      1.92608059	      0.48958432	      1.19646993	     -0.01546796	      0.98075729	      0.33770111	    -24.67028667	      2.34770156	     -4.00320820	     -2.62197328	     13.59148260	     -1.93976678	      4.54309755	     18.70083861	      2.69258575	      4.17116077	      2.47269717	     -6.64030601	     -8.25162021	      5.39366970	    -14.71029450	      4.68735456	      6.06440104
      1.17483333	      1.92558310	      0.72739442	      1.23796904	     -0.00937708	      0.98042996	      0.33712937	    -24.66444480	      2.05663967	     -4.18839216	     -3.38677100	     13.56579994	     -1.76533061	      4.84444549	     18.77879357	      3.04714374	      4.41310460	      1.75660845	     -7.16792293	     -8.76550609	      5.54496665	    -14.66130326	      4.37949974	      6.02688515
      1.17900000	      1.94748066	      0.96697186	      1.28629554	     -0.00327763	      0.98017027	      0.33655973	    -24.67948295	      1.77132696	     -4.32984630	     -4.14352372	     13.37769142	     -1.81472814	      9.26301788	     18.84027747	      3.40358574	      4.65273746	      1.00224999	     -7.72636083	     -9.32680984	      7.58516275	    -14.64598304	      4.06639506	      5.97596946
      1.18316667	      1.91849788	      1.20562461	      1.33178299	      0.00283927	      0.97990257	      0.33596965	    -24.60303975	      1.47892798	     -4.48595605	     -4.98269856	     13.26499874	     -1.68677550	      9.32446431	     18.99063164	      3.76182174	      4.81054831	      0.14638552	     -8.19491354	     -9.77344545	      7.55351306	    -14.56260036	      3.75997974	      5.93141319
      1.18733333	      1.90897125	      1.44457697	      1.38745982	      0.00896143	      0.97969847	      0.33535496	    -24.52275589	      1.19024288	     -4.64233851	     -5.87106257	     13.11712524	     -1.60555877	      9.46533992	     19.10820888	      4.12441424	      5.04555586	     -0.70591329	     -8.67088616	    -10.38868804	      7.51930796	    -14.50028458	      3.44724204	      5.86682850
      1.19150000	      1.86946672	      1.66994639	      1.44494958	      0.01508248	      0.97951237	      0.33474039	    -24.39151443	      0.91722243	     -4.74923132	     -6.78621366	     12.89434203	     -1.61016371	      9.62442267	     19.27636097	      4.47283301	      5.22755598	     -1.60840750	     -9.14830284	    -10.92292661	      7.48900034	    -14.40480683	      3.15496328	      5.80661061
      1.19566667	      1.83809610	      1.89602369	      1.50409204	      0.02120600	      0.97938243	      0.33411201	    -24.24228503	      0.64354816	     -4.85158986	     -7.74909804	     12.62215164	     -1.64548484	      9.83390784	     19.43876798	      4.82359026	      5.41575691	     -2.53686563	     -9.55911945	    -11.47966011	      7.45440933	    -14.32288970	      2.86313872	      5.73727613
      1.19983333	      1.81784680	      2.11340589	      1.56814060	      0.02732898	      0.97931119	      0.33347680	    -24.08930729	      0.38213730	     -4.93062329	     -8.73343932	     12.30538737	     -1.69515982	     10.19878970	     19.59729524	      5.16886759	      5.60788873	     -3.50019760	     -9.90635183	    -12.08506223	      7.39625169	    -14.25155486	      2.57368891	      5.65830085
      1.20400000	      1.81205109	      2.35910530	      1.62574804	      0.03349166	      0.97932119	      0.33287572	    -23.93294350	      0.09590443	     -4.98881246	     -9.75131477	     11.88450309	     -1.88978716	     10.34479839	     19.73643219	      5.53351566	      5.71110581	     -4.47477506	    -10.12446516	    -12.44532034	      7.36782784	    -14.19962308	      2.22735024	      5.58729513
      1.20816667	      1.77575667	      2.54441366	      1.67457369	      0.03957545	      0.97934024	      0.33221569	    -23.67611242	     -0.14748698	     -5.05026478	    -10.87023673	     11.35732534	     -2.08634307	     15.96579134	     19.89481287	      5.84546449	      5.93300437	     -5.42189935	    -10.39678336	    -13.06798706	      6.35072210	    -14.11733060	      1.99834897	      5.54217818
      1.21233333	      1.73485080	      2.74091302	      1.73490218	      0.04568321	      0.97939383	      0.33156427	    -23.39258281	     -0.39405237	     -5.10906509	    -12.04002278	     10.84429826	     -2.23622542	     16.01694445	     20.07527349	      6.16750412	      6.07159437	     -6.42334511	    -10.49634227	    -13.46453441	      6.34446333	    -14.02166867	      1.74458617	      5.43821874
      1.21650000	      1.74042979	      2.95335191	      1.78274179	      0.05179554	      0.97955474	      0.33094003	    -23.14613967	     -0.65574201	     -5.13103315	    -13.22059519	     10.27746012	     -2.43878712	     16.08019641	     20.19852837	      6.50128637	      6.18091018	     -7.42717467	    -10.50304546	    -13.85909354	      6.32885570	    -13.99325813	      1.44636302	      5.36037939
      1.22066667	      1.67915567	      3.10154206	      1.82063381	      0.05782557	      0.97967934	      0.33028315	    -22.74526735	     -0.86988051	     -5.14001881	    -14.53967037	      9.66354493	     -2.61023264	     16.31960267	     20.38787959	      6.77344897	      6.33904526	     -8.41530571	    -10.52787186	    -14.32611459	      6.25977652	    -13.88483936	      1.27063142	      5.28194462
      1.22483333	      1.65389794	      3.28497446	      1.85023109	      0.06388544	      0.97989502	      0.32964600	    -22.35956254	     -1.12157976	     -5.16063917	    -15.89578500	      8.97022760	     -2.84706719	     16.56572006	     20.51040900	      7.07658780	      6.48205498	     -9.36420171	    -10.41196022	    -14.67558282	      6.18460437	    -13.80973854	      1.02718169	      5.21387037
      1.22900000	      1.66930574	      3.44928315	      1.87633979	      0.06988791	      0.98018799	      0.32903159	    -21.98372908	     -1.35337191	     -5.16645997	    -17.28466885	      8.18931920	     -3.15852264	     21.02361320	     20.62074672	      7.35387827	      6.52611143	    -10.39292873	    -10.04739153	    -14.79462289	      4.73989091	    -13.80883785	      0.81552923	      5.09352589
      1.23316667	      1.67853887	      3.64055169	      1.87431537	      0.07592462	      0.98055062	      0.32841505	    -21.56150850	     -1.63249191	     -5.17788644	    -18.73987723	      7.33030329	     -3.37563604	     21.09030390	     20.65201208	      7.65966669	      6.68363428	    -11.24463156	     -9.89894593	    -15.23848966	      4.72910044	    -13.77643108	      0.55533326	      5.06798016
      1.23733333	      1.72590573	      3.82970764	      1.86774702	      0.08190549	      0.98098056	      0.32781727	    -21.14596652	     -1.90974850	     -5.17227852	    -20.23811377	      6.45274175	     -3.59702492	     21.16211257	     20.65377388	      7.95925022	      6.78897941	    -12.13075407	     -9.58380985	    -15.55335105	      4.71216288	    -13.81735441	      0.29303881	      4.99565554
      1.24150000	      1.68981152	      3.96684344	      1.84851603	      0.08781776	      0.98132332	      0.32722171	    -20.55963938	     -2.15185595	     -5.15477365	    -21.86549046	      5.52541024	     -3.86355960	     21.32742356	     20.73527080	      8.20090519	      6.87906934	    -12.98773822	     -9.22508250	    -15.78893510	      4.65937598	    -13.73124245	      0.12859072	      4.94418412
      1.24566667	      1.70429134	      4.12139195	      1.81261738	      0.09370182	      0.98176830	      0.32666066	    -20.00270461	     -2.41671895	     -5.12606735	    -23.50921700	      4.52869244	     -4.12780761	     21.55584974	     20.74448676	      8.45180861	      6.93224200	    -13.81417711	     -8.79214851	    -15.97366003	      4.57833080	    -13.72231381	     -0.07169326	      4.88704344
